<?xml version="1.0" encoding="utf-8"?><svg xmlns="http://www.w3.org/2000/svg" xmlns:xlink="http://www.w3.org/1999/xlink"><symbol viewBox="0 0 53 23" id="images--logo" xmlns="http://www.w3.org/2000/svg"><path d="m22.39 22.8 2.406-13.218a1.61 1.61 0 0 1 .73-.88c.438-.244.97-.376 1.595-.393l3.512-.004-.164.887-2.477 13.61H22.39v-.001ZM39.406 8.291l-2.643 14.51H31.23l2.64-14.51h5.536ZM3.122 5.174h5.54v-.003s3.333-.016 4.609-.016c2.609 0 4.148 1.704 3.8 4.293-.313 2.322-2.436 3.7-4.712 3.716-3.957.031-4.496 5.16-.357 5.16 1.988 0 4.452-.186 6.835-1.996 2.66-2.019 3.313-4.129 3.806-6.856.305-1.689-.08-4.828-1.72-6.681C19.285.939 17.068.014 14.272.014 11.474.014 4.09 0 4.09 0s-.48 2.578-.97 5.174Z"/><path d="m0 22.779 2.162-11.873s3.509.012 3.952.003c2.05 0 2.905-2.624 4.668-2.624l2.455-.005c1.046 0 1.454.927 1.394 1.344-.113.77-.587 1.212-1.606 1.212l-.002.007s-.678.005-1.058 0c-1.954-.023-4.312.807-4.846 3.283-.636 3.494-1.58 8.653-1.58 8.653H0ZM3.485 8.365H1.98c-.118 0-.23.09-.25.205a.17.17 0 0 0 .174.206h1.504c.116 0 .23-.093.249-.206.023-.114-.055-.205-.172-.205Zm.191-1.054H2.171a.263.263 0 0 0-.249.205c-.021.113.058.206.175.206h1.505c.118 0 .23-.093.25-.206.02-.113-.057-.205-.176-.205Zm-.383 2.106H1.788a.263.263 0 0 0-.251.207.17.17 0 0 0 .173.207h1.505c.119 0 .23-.092.251-.207.023-.114-.055-.207-.173-.207Zm.576-3.165H2.365a.263.263 0 0 0-.25.205.171.171 0 0 0 .174.207h1.506a.26.26 0 0 0 .249-.207c.02-.113-.057-.205-.175-.205Zm22.48-4.962c-.293 1.545-.89 4.762-.89 4.762.307-.329.61-.455.863-.536.315-.1.714-.13 1.34-.147l3.513-.005.991-5.302h-3.238c-1.558.001-2.369.542-2.58 1.228Zm22.929.97C47.635.794 45.564.063 43.065.063h-7.698l-.964 5.297h5.547l2.14.055c1.015.033 1.875.27 2.582.717 1.145.765 1.558 2.024 1.239 3.775l-1.626 8.933c-.576 2.876 3.157 4.009 4.805 4.009.175-.916 2.175-11.947 2.175-11.947h-.009l.182-.995c.597-3.28-.123-5.831-2.16-7.647ZM51.922.072c.18 0 .357.045.53.135a.97.97 0 0 1 .403.387c.097.168.145.342.145.523a1.042 1.042 0 0 1-.539.906 1.113 1.113 0 0 1-1.074 0 .994.994 0 0 1-.4-.387 1.026 1.026 0 0 1-.142-.519c0-.18.047-.355.145-.523a.992.992 0 0 1 .402-.387 1.14 1.14 0 0 1 .53-.135Zm0 .173a.936.936 0 0 0-.441.113.82.82 0 0 0-.336.321.84.84 0 0 0-.002.87c.08.138.191.244.334.321a.912.912 0 0 0 .894 0 .856.856 0 0 0-.005-1.513.959.959 0 0 0-.444-.112Zm-.473 1.449V.572h.397c.136 0 .235.01.295.03a.294.294 0 0 1 .202.272c0 .083-.03.154-.09.214a.358.358 0 0 1-.24.103c.04.017.074.036.098.06a1.3 1.3 0 0 1 .172.222l.141.221h-.228l-.102-.176c-.081-.139-.147-.226-.196-.262a.247.247 0 0 0-.15-.04h-.11v.478h-.19Zm.187-.633h.228c.108 0 .182-.015.223-.046a.154.154 0 0 0 .06-.125.145.145 0 0 0-.029-.09.17.17 0 0 0-.079-.057.644.644 0 0 0-.187-.02h-.212v.338h-.004Z"/></symbol></svg>